<svg xmlns:inkscape="http://www.inkscape.org/namespaces/inkscape" xmlns:sodipodi="http://sodipodi.sourceforge.net/DTD/sodipodi-0.dtd" xmlns="http://www.w3.org/2000/svg" xmlns:svg="http://www.w3.org/2000/svg" version="1.1" id="svg2" sodipodi:docname="2045_R1NUIExBUiAxMjQtNDM.eps" viewBox="692.21 579.07 1444.01 1670.29">
  <defs id="defs6"/>
  <sodipodi:namedview id="namedview4" pagecolor="#ffffff" bordercolor="#000000" borderopacity="0.25" inkscape:showpageshadow="2" inkscape:pageopacity="0.0" inkscape:pagecheckerboard="0" inkscape:deskcolor="#d1d1d1"/>
  <g id="g8" inkscape:groupmode="layer" inkscape:label="ink_ext_XXXXXX" transform="matrix(1.3333333,0,0,-1.3333333,0,2829.3333)">
    <g id="g10" transform="scale(0.1)">
      <path d="m 6401.02,16877 h -78.99 c -624.35,0 -1130.48,-506.1 -1130.48,-1130.4 V 5582.5 l 7.67,0.6 c -16.11,-194.3 -5.86,-394.1 39.71,-578.4 3.53,-14.2 7.43,-28.4 11.58,-42.4 5.77,-19.6 13.59,-38.7 22.86,-56.8 82.37,-161.5 164.04,-281.8 232.9,-368.4 34.93,-33.2 69.18,-65.8 104.12,-99 10.71,-7.7 21.73,-15.6 32.99,-23.6 31.96,-22.6 67.41,-40.3 105.13,-50.8 2.97,-0.8 5.94,-1.6 8.92,-2.4 29.3,-8 59.64,-11.5 90.03,-11.5 h 9820.14 c 195.5,0 354,158.5 354,354 v 65.1 h -200.5 v -2.2 H 6128.65 c -56.82,0 -112.15,16.9 -159.36,48.5 -3.38,2.3 -6.84,4.6 -10.38,7 -32.87,22.6 -60.28,52.3 -81.09,86.3 -132.53,216.5 -218.45,446 -194.24,720.3 11.52,130.6 44.28,265.9 99.82,389.6 3.43,7.6 7.26,15.1 11.29,22.4 9.98,18.1 19.61,36.5 28.36,54.8 3.76,7.9 7.68,15.7 12.12,23.2 25.12,42.6 53.35,83 84.84,120.4 23.08,27.5 51.47,50.1 83.13,66.9 53.16,28.3 99.61,50.6 133.63,66.1 37.42,17.1 77.99,26 119.15,26 h 9565.18 v -1 l 200.5,15.3 v 48.6 680.5 H 6401.02 V 16877" style="fill:#4558b0;fill-opacity:1;fill-rule:nonzero;stroke:none" id="path12"/>
      <path d="m 6255.92,6398.2 c -41.16,0 -81.73,-8.9 -119.15,-26 -34.02,-15.5 -80.47,-37.8 -133.63,-66.1 -31.66,-16.8 -60.05,-39.4 -83.13,-66.9 -31.49,-37.4 -59.72,-77.8 -84.84,-120.4 -4.44,-7.5 -8.36,-15.3 -12.12,-23.2 -8.75,-18.3 -18.38,-36.7 -28.36,-54.8 -4.03,-7.3 -7.86,-14.8 -11.29,-22.4 -55.54,-123.7 -88.3,-259 -99.82,-389.6 -24.21,-274.3 61.71,-503.8 194.24,-720.3 20.81,-34 48.22,-63.7 81.09,-86.3 3.54,-2.4 7,-4.7 10.38,-7 47.21,-31.6 102.54,-48.5 159.36,-48.5 h 9692.45 v 2.2 1628.3 1 H 6255.92" style="fill:#f0d5af;fill-opacity:1;fill-rule:nonzero;stroke:none" id="path14"/>
      <path d="M 14744.9,9091.5 H 7398.65 v 4761.4 H 14744.9 Z M 9428.76,16877 v -2240.9 l -578.73,661.4 -744.09,-661.4 V 16877 H 6401.02 V 7141.6 H 16021.6 V 16877 H 9428.76" style="fill:#4575c3;fill-opacity:1;fill-rule:nonzero;stroke:none" id="path16"/>
      <path d="m 8357.35,10143 875.1,2768.5 c 22.97,72.7 90.38,122 166.5,122 0.37,0 0.76,0 1.15,0 76.59,-0.5 143.9,-50.8 166.02,-124.2 l 835.28,-2768.5 c 27.9,-92.3 -24.3,-189.7 -116.7,-217.6 -92.4,-27.9 -189.7,24.4 -217.6,116.8 l -235.78,781.4 h -893.25 l -247.71,-783.6 c -23.54,-74.5 -92.33,-122.1 -166.46,-122.1 -17.44,0 -35.17,2.7 -52.67,8.2 -91.96,29 -142.95,127.2 -113.88,219.1 z m 2039.25,1506.3 h 1150.9 c 96.5,0 174.6,-78.2 174.6,-174.6 0,-96.5 -78.1,-174.7 -174.6,-174.7 h -1150.9 c -96.4,0 -174.6,78.2 -174.6,174.7 0,96.4 78.2,174.6 174.6,174.6 z m 1398.7,1304.4 h 1581.1 c 63.8,0 122.5,-34.8 153.1,-90.8 30.7,-55.9 28.4,-124.1 -6,-177.8 l -1494.9,-2340.2 h 1347.8 c 96.4,0 174.6,-78.2 174.6,-174.6 0,-96.4 -78.2,-174.6 -174.6,-174.6 h -1666.5 c -63.8,0 -122.5,34.8 -153.2,90.7 -30.6,55.9 -28.3,124.1 6,177.9 l 1494.9,2340.1 h -1262.3 c -96.4,0 -174.6,78.2 -174.6,174.7 0,96.4 78.2,174.6 174.6,174.6 z M 7398.65,9091.5 h 7346.25 v 4761.4 H 7398.65 V 9091.5" style="fill:#ef3444;fill-opacity:1;fill-rule:nonzero;stroke:none" id="path18"/>
      <path d="m 9725.95,11170.7 -330.87,1096.6 -346.63,-1096.6 z" style="fill:#ef3444;fill-opacity:1;fill-rule:nonzero;stroke:none" id="path20"/>
      <path d="m 9395.08,12267.3 330.87,-1096.6 h -677.5 z M 8471.23,9923.9 c 17.5,-5.5 35.23,-8.2 52.67,-8.2 74.13,0 142.92,47.6 166.46,122.1 l 247.71,783.6 h 893.25 l 235.78,-781.4 c 27.9,-92.4 125.2,-144.7 217.6,-116.8 92.4,27.9 144.6,125.3 116.7,217.6 l -835.28,2768.5 c -22.12,73.4 -89.43,123.7 -166.02,124.2 -0.39,0 -0.78,0 -1.15,0 -76.12,0 -143.53,-49.3 -166.5,-122 L 8357.35,10143 c -29.07,-91.9 21.92,-190.1 113.88,-219.1" style="fill:#f0d5af;fill-opacity:1;fill-rule:nonzero;stroke:none" id="path22"/>
      <path d="m 8850.03,15297.5 578.73,-661.4 V 16877 H 8105.94 v -2240.9 l 744.09,661.4" style="fill:#eac032;fill-opacity:1;fill-rule:nonzero;stroke:none" id="path24"/>
      <path d="m 11795.3,12604.4 h 1262.3 l -1494.9,-2340.1 c -34.3,-53.8 -36.6,-122 -6,-177.9 30.7,-55.9 89.4,-90.7 153.2,-90.7 h 1666.5 c 96.4,0 174.6,78.2 174.6,174.6 0,96.4 -78.2,174.6 -174.6,174.6 h -1347.8 l 1494.9,2340.2 c 34.4,53.7 36.7,121.9 6,177.8 -30.6,56 -89.3,90.8 -153.1,90.8 h -1581.1 c -96.4,0 -174.6,-78.2 -174.6,-174.6 0,-96.5 78.2,-174.7 174.6,-174.7" style="fill:#f0d5af;fill-opacity:1;fill-rule:nonzero;stroke:none" id="path26"/>
      <path d="m 10396.6,11300 h 1150.9 c 96.5,0 174.6,78.2 174.6,174.7 0,96.4 -78.1,174.6 -174.6,174.6 h -1150.9 c -96.4,0 -174.6,-78.2 -174.6,-174.6 0,-96.5 78.2,-174.7 174.6,-174.7" style="fill:#f0d5af;fill-opacity:1;fill-rule:nonzero;stroke:none" id="path28"/>
    </g>
  </g>
</svg>